<?xml version="1.0" standalone="no"?>
<!DOCTYPE svg PUBLIC "-//W3C//DTD SVG 20010904//EN"
 "http://www.w3.org/TR/2001/REC-SVG-20010904/DTD/svg10.dtd">
<svg version="1.0" xmlns="http://www.w3.org/2000/svg"
 width="320.000000pt" height="115.000000pt" viewBox="0 0 320.000000 115.000000"
 preserveAspectRatio="xMidYMid meet">
<metadata>
Created by potrace 1.16, written by Peter Selinger 2001-2019
</metadata>
<g transform="translate(0.000000,115.000000) scale(0.100000,-0.100000)"
fill="#000000" stroke="none">
<path d="M526 840 c-58 -18 -102 -84 -88 -131 16 -57 62 -88 151 -103 54 -10
90 -53 60 -72 -45 -28 -129 -4 -129 36 0 17 -7 20 -44 20 -25 0 -47 -4 -50 -9
-13 -20 20 -86 52 -108 62 -41 186 -40 233 3 22 20 31 18 24 -6 -6 -18 -2 -20
44 -20 50 0 50 0 62 40 l12 40 69 0 c68 0 69 0 74 -30 4 -16 12 -34 19 -40 6
-5 52 -9 101 -7 l89 2 3 100 4 100 25 -70 c13 -38 29 -85 35 -102 10 -29 15
-33 49 -33 41 0 38 -6 93 155 l25 70 0 -112 1 -113 95 0 94 0 3 68 3 67 60 0
c81 1 118 18 135 61 8 18 16 34 20 34 3 0 5 -51 5 -112 l0 -113 293 -3 293 -2
-3 42 -3 43 -97 3 -98 3 0 34 0 35 90 0 90 0 0 40 0 40 -90 0 -90 0 0 30 0 30
95 0 c92 0 95 1 101 24 15 60 12 61 -149 64 l-147 3 0 -153 0 -153 -95 3 -95
3 0 150 0 150 -47 -3 c-44 -3 -48 -5 -45 -26 1 -13 -2 -30 -6 -38 -7 -12 -11
-10 -21 9 -27 51 -54 57 -249 56 l-179 0 -40 -120 -40 -121 -39 119 -39 118
-67 3 -68 3 -2 -178 -3 -178 -66 175 -66 175 -49 3 -49 3 -59 -158 c-61 -164
-73 -190 -61 -136 8 38 -14 92 -47 112 -13 8 -50 22 -83 31 -84 22 -103 34
-89 57 23 37 114 20 114 -22 0 -7 19 -13 50 -14 42 -1 50 2 50 16 0 26 -35 79
-64 98 -29 19 -120 28 -160 15z"/>
<path d="M2544 840 c-46 -14 -76 -52 -81 -104 -5 -40 -2 -48 24 -75 16 -16 50
-35 74 -41 87 -24 114 -36 117 -54 5 -25 -10 -37 -53 -43 -29 -4 -42 0 -61 18
-13 12 -24 28 -24 36 0 9 -14 13 -45 13 -44 0 -45 -1 -45 -33 0 -73 92 -125
198 -113 128 15 173 124 87 212 -10 10 -44 25 -70 30 -52 10 -97 28 -102 40
-9 23 17 44 53 44 27 0 36 -6 49 -30 13 -25 21 -30 54 -30 45 0 56 20 36 67
-22 53 -134 86 -211 63z"/>
<path d="M990 325 l0 -46 43 1 c23 0 51 1 62 0 11 0 46 1 78 1 31 1 60 -1 64
-5 3 -3 17 1 29 9 17 11 24 12 28 2 3 -8 10 -6 20 7 14 18 21 15 17 -6 0 -5 6
-8 14 -8 8 0 18 12 21 26 5 18 9 22 14 13 5 -7 6 -19 3 -27 -4 -9 0 -13 11
-11 9 2 26 23 36 47 19 41 19 42 0 42 -10 0 -21 -6 -23 -12 -4 -10 -8 -10 -14
-2 -4 7 -35 12 -70 12 -59 0 -63 -2 -63 -24 0 -33 -18 -39 -22 -7 -3 27 -5 28
-70 30 l-68 2 -1 -32 c0 -30 -1 -31 -10 -9 -5 13 -7 28 -3 33 3 5 -4 9 -15 9
-17 0 -21 -6 -21 -30 0 -20 -5 -30 -15 -30 -10 0 -15 10 -15 30 0 20 -5 30
-15 30 -11 0 -15 -12 -15 -45z"/>
<path d="M1465 357 c-2 -6 -3 -25 -2 -42 2 -27 5 -30 37 -30 32 0 35 3 35 28
-1 15 5 27 12 27 8 0 13 -12 13 -30 0 -16 4 -30 9 -30 12 0 24 37 16 50 -3 5
-1 10 4 10 6 0 11 -13 11 -30 0 -20 5 -30 15 -30 8 0 15 7 15 15 0 8 5 15 10
15 6 0 10 -7 10 -15 0 -12 16 -15 86 -15 81 0 86 1 81 20 -3 11 -1 20 5 20 5
0 6 5 3 10 -3 6 -1 10 4 10 6 0 11 -13 11 -30 0 -20 5 -30 15 -30 10 0 15 10
15 30 0 17 4 30 9 30 5 0 12 -13 16 -30 6 -29 35 -43 35 -17 0 8 4 7 10 -3 8
-12 13 -13 30 -2 11 7 20 8 20 2 0 -5 35 -9 85 -8 61 2 85 6 85 15 0 18 10 16
25 -4 19 -26 33 -8 26 34 -6 35 -9 38 -44 41 -21 2 -37 -1 -37 -7 0 -7 -7 -7
-20 1 -17 11 -22 10 -29 -1 -6 -9 -11 -10 -15 -2 -9 15 -139 12 -148 -3 -6 -8
-8 -7 -8 1 0 18 -439 18 -445 0z"/>
</g>
</svg>
